<?xml version="1.0" encoding="UTF-8"?>
<svg id="Layer_1" data-name="Layer 1" xmlns="http://www.w3.org/2000/svg" viewBox="0 0 395.54 836.63">
  <defs>
    <style>
      .cls-1, .cls-2, .cls-3, .cls-4, .cls-5, .cls-6 {
        fill: #231f20;
      }

      .cls-1, .cls-7, .cls-8, .cls-9, .cls-10 {
        stroke: #fff;
      }

      .cls-1, .cls-8, .cls-9, .cls-10 {
        stroke-miterlimit: 10;
      }

      .cls-1, .cls-9, .cls-10 {
        stroke-width: .25px;
      }

      .cls-2 {
        letter-spacing: -.07em;
      }

      .cls-2, .cls-11, .cls-3, .cls-4, .cls-5, .cls-6 {
        isolation: isolate;
      }

      .cls-2, .cls-3, .cls-4, .cls-5, .cls-6 {
        font-family: HKGroteskWide-Medium, 'HK Grotesk Wide';
        font-size: 9.8px;
        font-weight: 500;
      }

      .cls-7 {
        stroke-miterlimit: 10;
        stroke-width: .5px;
      }

      .cls-7, .cls-8, .cls-9, .cls-10 {
        fill: none;
      }

      .cls-8 {
        stroke-width: .5px;
      }

      .cls-12 {
        opacity: .9;
      }

      .cls-10 {
        stroke-dasharray: 4;
      }

      .cls-4 {
        letter-spacing: -.03em;
      }

      .cls-5 {
        letter-spacing: -.04em;
      }

      .cls-6 {
        letter-spacing: -.01em;
      }
    </style>
  </defs>
  <path class="cls-1" d="M395.33,151.65l-131.98,76.33V.22h-131.2L.25,75.93l131.89,75.72L.25,227.98l132.51,75.72v152.05L.25,380.64v302.26l133.12-75.72v152.66l131.28-75.11v151.43l65.34-114.19,65.34,37.86v-151.43h-85.49l-45.19-75.72h87.93l42.74-75.72-130.06-76.33,130.06-76.33s-.61-153.27,0-152.66h.01Z"/>
  <polygon class="cls-10" points="132.15 .22 263.35 76.54 132.15 151.65 132.15 .22"/>
  <polygon class="cls-10" points="263.35 227.98 132.15 151.65 132.76 303.7 263.35 227.98"/>
  <polyline class="cls-10" points="132.76 303.7 265.26 380.64 .25 533 133.37 607.18 132.76 455.74 264.65 532.68 395.33 456.96"/>
  <path class="cls-10" d="M329.99,721.97l-65.34-37.25-131.28-77.55,131.28-74.5.61-152.05s-1.92-156.29-1.92-152.66l131.98,76.33"/>
  <path class="cls-9" d="M133.08,418.07c9.33-23.94,32.62-40.91,59.86-40.91,35.47,0,64.23,28.75,64.23,64.23s-28.75,64.23-64.23,64.23c-31.04,0-56.93-22.02-62.92-51.28"/>
  <path class="cls-9" d="M295.35,398.29c2.84,12.69,13.71,78.66-34.33,132.27-48.04,53.61-215.08-16.02-218.07-125.73"/>
  <path class="cls-9" d="M.25,421.8s28.19,117.85,133.01,159.15c0,0,92.27,18.12,158.4-3"/>
  <path class="cls-9" d="M106.76,622.31S11.12,547.07.25,540.58"/>
  <path class="cls-9" d="M.25,594.86s49.86,27.52,66.13,50.42"/>
  <path class="cls-9" d="M.25,648.68s20.54,9.47,25.72,19.58"/>
  <path class="cls-9" d="M210.05,715.97s-44.52-5.11-76.68,15.31"/>
  <path class="cls-9" d="M133.37,744.73l6.51,11.38-6.51-11.38Z"/>
  <path class="cls-9" d="M133.37,684.41s97.39-17.17,130.98-11.14c0,0,48.34-21.81,130.98-19.02"/>
  <path class="cls-9" d="M395.33,698.79s-90.18-20.42-130.67,45.93"/>
  <path class="cls-9" d="M395.33,744.73s-27.68-11.08-35.62-5.54"/>
  <path class="cls-9" d="M308.71,759.17s-17.29,14.17-17.05,29.79"/>
  <path class="cls-9" d="M359.7,608.4s-76.83,13.07-95.05,13.92c-18.22.85-127.43,14.31-131.28,15.23"/>
  <path class="cls-9" d="M341.19,425.19s.36,65.72-23.77,107.49"/>
  <path class="cls-9" d="M295.94,362.63s-24.37-11.36-27.7-10.9-80.56-39-136.09-.01"/>
  <path class="cls-9" d="M341.19,334.5s-67.75-31.51-76.84-30.8c-9.1.71-87.22-21.1-130.98-9.5,0,0-28.36-11.18-35.13-10.23"/>
  <path class="cls-9" d="M8.08,223.45s114.93,22.04,124.44,22.03c9.51,0,115.58,6.96,131.22,12.52,15.63,5.57,123.24,51.2,123.24,51.2"/>
  <path class="cls-9" d="M395.17,258.47s-87.65-21.7-106.82-44.95"/>
  <path class="cls-9" d="M395.33,213.52s-36.04-1.85-66.02-23.69"/>
  <path class="cls-9" d="M395.1,165.68s-7.85.78-17.47-3.79"/>
  <path class="cls-9" d="M66.17,189.83s48.2,13.05,65.98,11.84c0,0,83.3,14.81,132.2.08"/>
  <path class="cls-9" d="M264.35,151.65s-51.48,35.03-132.2,0c0,0-49.45-60.35-33.91-131.97"/>
  <path class="cls-9" d="M53.5,45.36s0,39.53,12.67,68.41"/>
  <path class="cls-9" d="M7.06,72.02s-.58,7.48,1.02,8.4"/>
  <path class="cls-9" d="M183.91.22s-13.84-2.11-28.86,13.32c-15.01,15.44-15.06,44.71-15.06,44.71,32.46,120.29,124.35,38.67,124.35,38.67"/>
  <path class="cls-9" d="M46.88,102.7l14.14-3.4,42.7-11.45,40.1-11.62,58.55-14.18-62.37-3.8s-36.25,1.89-41.76,1.9-41.3,0-41.3,0l-32.49,1.9"/>
  <polyline class="cls-9" points="93.06 22.66 133.37 30.56 143.38 35.56 202.36 62.05 133.37 110.76 113.4 121.24 95.21 130.45"/>
  <polyline class="cls-9" points="175.8 .12 202.36 62.05 141.9 .12"/>
  <polyline class="cls-9" points="217.32 .22 202.36 62.05 197.53 .12"/>
  <polyline class="cls-9" points="264.35 10.04 202.36 62.05 240.18 .22"/>
  <polyline class="cls-9" points="264.35 62.05 202.36 62.05 264.35 39.63"/>
  <polyline class="cls-9" points="263.35 136.54 235.25 93.45 202.36 62.05 253.93 81.93 264.35 91.19"/>
  <line class="cls-9" x1="37.37" y1="249.19" x2="45.71" y2="201.68"/>
  <line class="cls-9" x1="76.69" y1="271.66" x2="93.06" y2="174.27"/>
  <polyline class="cls-9" points="116.48 294.4 137.61 154.68 167.96 110.92 202.36 62.05 222.63 99.29 263.35 227.98"/>
  <line class="cls-9" x1="28.73" y1="396.77" x2=".25" y2="398.29"/>
  <line class="cls-9" x1="72.87" y1="421.8" x2=".25" y2="445.38"/>
  <line class="cls-9" x1="100.68" y1="437.56" x2=".25" y2="491.21"/>
  <polyline class="cls-9" points="121.54 449.39 14.49 540.58 .25 560.9"/>
  <polyline class="cls-9" points="17.83 672.9 53.5 633.46 92.47 584.39 161.16 472.31 192.94 441.39 144.93 462.84 130.55 473.66 72.87 540.58 47.18 575.82 .25 641.1"/>
  <polyline class="cls-9" points="194.73 723.34 187.9 639.38 187.9 576.24 191.31 489.9 192.94 441.39 175.44 480.64 139.88 603.48 139.88 611.02 166.47 740.9"/>
  <polyline class="cls-9" points="317.43 741.19 280.34 675.47 257.16 534.38 192.94 441.39 223.48 556.04 233.22 666.16 230.76 704.11"/>
  <line class="cls-9" x1="264.35" y1="723.34" x2="305.64" y2="764.73"/>
  <line class="cls-9" x1="264.65" y1="764.73" x2="297.14" y2="779.38"/>
  <line class="cls-9" x1="141.6" y1="12.47" x2="121.26" y2="12.47"/>
  <polyline class="cls-9" points="363.88 741.61 361.45 695.83 359.7 629.21 354.01 608.4"/>
  <polyline class="cls-9" points="337.34 726.23 320.68 658.55 312.61 608.4"/>
  <polyline class="cls-9" points="133.37 418.19 192.94 441.39 133.37 441.39"/>
  <polyline class="cls-9" points="133.37 337.99 192.94 441.39 133.37 388.41"/>
  <polyline class="cls-9" points="377.52 491.21 335.81 478.94 293.78 468.36 251.8 458.26 192.94 441.39 245.44 478.39 282.71 498.67 352.58 532.68"/>
  <polyline class="cls-9" points="303.04 402.81 263.35 409.25 192.94 441.39 255.18 436.38 298.42 437.56 368.79 441.39"/>
  <polyline class="cls-9" points="258.62 225.23 258.62 232.13 230.12 360.23 192.94 441.39 257.16 377.16 268.24 351.73 302.45 250.6 341.76 182.63"/>
  <path class="cls-9" d="M194.73,441.39l4.85-63.89,2.78-43.01,5.07-83.86,3.38-42.36-3.38-42.61v-57.12l-5.07-46.51-15.55,59.73-10.98,41.34-5.14,43.4-3.24,42.59-2.19,43.72s2.83,41.86,5.42,45.16c2.59,3.3,9.1,40.53,9.1,40.53l7.01,42.31,6.15,20.56"/>
  <polyline class="cls-9" points="382.57 159.03 351.33 249.19 304.86 357.4"/>
  <polyline class="cls-9" points="395.33 222.97 382.57 296.93 369.19 320.06"/>
  <circle class="cls-9" cx="192.94" cy="441.39" r="25.78"/>
  <polyline class="cls-10" points="264.65 532.68 264.65 684.73 395.33 608.4"/>
  <g class="cls-12">
    <path class="cls-8" d="M143.34,422.64c.5-.1.9.67.84,1.03-.44,2.36-2.59.9-1.94,3.47.16.64-.82,1.03-.8,1.74s.53,2.12-.27,2.47c-.91.39-2.04.12-3.09.49-1.06-1.79-1.88-4.55-.73-6.23l2.24-3.27c.43.66.73.99,1.09.72s.51-.64.94-1.12c.34.42-.09.92.17,1.63.7,0,.88-.78,1.56-.92h0Z"/>
    <path class="cls-8" d="M143.51,290.15c.93,3.3,6.23-.16,5.75,2.03-.24,1.09-3.14-.71-3.8.42-.56.95.65,1.89,1.15,3.06-1.85-.26-3.21-.02-4.73.01-1.13.02-4.42-2.28-4.53-2.63-.07-.24.19-.78.55-1.15,1,.82,4.58,0,4.61-.04.4-.46.63-.94.99-1.71h0Z"/>
    <path class="cls-8" d="M169.19,447.32c.52,2.98,4.34,1.83,3.85,4.35-.13.68-.71,1.08-1.43.96-.84-.14-1.17-.81-1.42-1.93-.63.11-.59.67-.95,1-2.01-.33-4.08-.29-5.92.75-.42-1.64.85-1.84,1.72-2.5,1.37-1.03,2.48-2.14,4.14-2.64h0Z"/>
    <path class="cls-8" d="M337.29,623.24c.9.34,2.35-1.65,2.37-1.68.27-.54-.04-.95-.27-1.57l1.69.22c1.03,1.33-.2,2.23-1.09,3.02-2.08,1.88-4.63,2.75-7.13,1.03,1.35-.8,3.08.53,3.53-2.02.37.41.56.87.9,1Z"/>
    <path class="cls-8" d="M201.54,463.27l-1.95,1.98c-.2-.8.04-1.29-.24-1.99-3.6.75-2.72-1.19-4.53-2.53.62-.61.86-1.27,1.5-1.61,1.34.59,1.73,2.12,2.85,2.9.72.5,1.91.23,2.37,1.26h0Z"/>
    <path class="cls-8" d="M289.72,617.71c1.41.99-.9,2.96-.78,3.21l.83,1.79c-1.86-1.14-2.85-3.96-1.71-6.29.39.52.94.79,1.66,1.29Z"/>
    <path class="cls-8" d="M221.17,453.93c.32.54.45,1.21.16,1.39l-1.31.79c-.82.49-.25,2.88-1.47,3.53-.77.41-2.1-.27-2.06-1.05.06-1.46,1.42-1.78,2.62-2.24l2.07-2.41h-.01Z"/>
    <path class="cls-8" d="M156.21,130.36c-.19.81-.56,1.29-1.06,1.41-.8.18-3.62-.99-2.88-2.13,1.02-1.59,3.03,1.75,3.94.72Z"/>
    <path class="cls-8" d="M153.82,290.87c1.21-.5,3.12-.44,3.35.92-.74.9-2.72.23-3.77-.38-.59-.31-.46-1.14.42-.54Z"/>
    <path class="cls-8" d="M342.63,621.11c-.79-2.82-4.05-2.6-5.39-3.68,2.3-.13,3.95,1.09,5.64,2.11.14.57.32,1.02-.25,1.58h0Z"/>
    <path class="cls-8" d="M254.77,402.09c.6-.09,1.63.27,1.98.78.32.47-.25,1.04-.59,1.21-.48.25-1.33-.04-1.64-.4-.38-.45-.54-1.48.24-1.6h.01Z"/>
    <path class="cls-8" d="M245.43,375.49c.28,1.46.65,2.96-.52,4.38-.33-.65-.98-.93-1.86-1.4,1.39-.57,2.37-1.45,2.39-2.98h0Z"/>
    <path class="cls-8" d="M205.16,99.27c.81-.1,3.9-.68,3.73.74-.13,1.12-2.66-.69-3.78.31-.36-.19.1-.51.05-1.05Z"/>
    <path class="cls-8" d="M350.46,623.37c.13,2.27-4.52-1.47-3.66-2.73,1.22,1.07,2.17,2.08,3.66,2.73Z"/>
    <path class="cls-8" d="M276.41,647.21c-1.5.33-2.56-.26-3.68-.53.86-.52,1.35-.84,2.11-.81.58.02,1.5.22,1.57,1.34Z"/>
    <path class="cls-8" d="M131.97,291.54c1.45.03,2.22.18,3.16-.18-.16,1-.66,1.56-1.65,1.42-.59-.08-1.86-.22-1.51-1.24h0Z"/>
    <path class="cls-8" d="M157.17,302.67c.16-.12,2.56,2.43,1.2,2.84-.8.24-1.83-2.38-1.2-2.84Z"/>
    <path class="cls-8" d="M356.87,624.67c-7.1-2.43,5.53.32,4.11,1.41l-4.11-1.41Z"/>
    <path class="cls-8" d="M230.27,72.86c-1.32.78-2.57.62-3.95.02,1.16-.72,2.52-.58,3.95-.02Z"/>
    <path class="cls-8" d="M287.91,628.06c.36.96-.28,1.14-.75,1.31-.52.19-1.59-.18-1.17-.78.32-.46,1.25-.4,1.92-.53h0Z"/>
    <path class="cls-8" d="M232.3,436.65c.53.21.78,1.61.67,1.78-.24.39-.48.4-.64.27-.27-.22-.68-.47-.7-.86-.05-.92.43-1.28.67-1.19Z"/>
    <path class="cls-8" d="M363.01,625.01l1.99,3.05c-.23.82-4.63-4.81-1.99-3.05Z"/>
    <path class="cls-8" d="M303.77,629.27c.48,1.2.37,2.22-.24,3.41-.79-1.3-.39-2.42.24-3.41Z"/>
    <path class="cls-8" d="M362.84,628.59l-2.37.3c.16-.84.29-1.48,1.15-1.23.41.12,1.05.3,1.22.93Z"/>
    <path class="cls-8" d="M166.36,452.76c.72.03,1.2-.23,1.53-.1.24.09,0,.68-.25,1.06-.33.54-.76.18-1.06,0-.4-.24-.97-.99-.23-.96h0Z"/>
    <path class="cls-8" d="M248.04,424.7c.66,1.14.12,2.12-.19,3.23-.55-.46-.57-1.25-.09-1.89.27-.44-.11-.91.28-1.34Z"/>
    <path class="cls-8" d="M180.43,457.3c-.25.37-1.45.48-1.66.12-.14-.29.35-.94.63-.9.33.05,1.35.31,1.03.79h0Z"/>
    <rect class="cls-7" x="158.13" y="308.34" width="2.49" height=".77" transform="translate(-56.31 36.35) rotate(-11.07)"/>
    <path class="cls-8" d="M364.48,629.33c.83.91,1.49.42,1.99,1.17-.39.52-1.24.19-1.58-.01-.3-.17-.61-.94-.4-1.16h-.01Z"/>
    <path class="cls-8" d="M156.52,307.08c.74.86.63,1.56,1.29,2.18-1.2.11-1.68-1.17-1.29-2.18Z"/>
    <path class="cls-8" d="M354.59,624.48c-1.08-.15-1.93-.38-2.74-.9,1.09.11,1.89.51,2.74.9Z"/>
    <path class="cls-8" d="M224.83,92.28c-.39.79-.66.04-1.86.11.38-.36,1.1-.33,1.86-.11Z"/>
    <g>
      <path class="cls-8" d="M190.04,78.3c-2.02.09-4.3,2.44-5.04,1.4-.39-.54-.05-1.28.27-1.7,1.26-1.63,2.75-2.38,4.73-1.53.4.17.91.32.96.81.04.42-.31.99-.93,1.02h0Z"/>
      <path class="cls-8" d="M192.53,79.07c.41-.56,1.08.01,1.33.26.37.37.31,1.2-.02,1.54-.43-.57-.8-.98-1.15-.88l-1.4.38c.44-.36.78-.66,1.25-1.3h-.01Z"/>
      <g>
        <path class="cls-8" d="M194.87,403.62c-.7.89-.14,2.52-1.3,3.05-.82.38-1.73-.11-2.64-.46l2.78-3.88c-1.03-1.29-1.83-2.57-1.9-4.2-.07-1.55-1.98-1.54-2.71-2.34-.61-.67.22-2.3-1.14-2.8-1.14,1.63-1.11,3.78-.79,5.72.89.31,1.97.14,2.41.71,1.11,1.44,1.32,3.29.82,4.96-.34,1.15-1.2,1.91-2.24,1.83.38-1.02.59-1.67-.41-1.96-.02,1.65-.96,1.91-1.96,2.29-1.41.54-2.67.74-3.87-.45.44-.3.67-.39.87-.89-1.09-.11-1.73-1.05-2.68-1.3l-2.54-.68c-1.44-.38-3.09-.63-3.5-2.33-.08-.32.61-1.17.12-1.49-1.02-.67-2.29-.04-3.2-.54-1.03-.57-1.88-1.12-2.98-.27.05-1.51-.06-2.73.27-4,1.14-.43,1.92.72,3.14,1,.51.11,1.01-.74.83-1.12-1.08-2.32-4.58-.53-5.04-5.25.66.04,1.17.48,2.05-.04l-1.78-1.52c8.86-1.6,5.14,4.5,11.57.49.6.24.73,1.1.69,1.54-.09,1.2-2.08.84-2.71,1.76.1-.15-.65,3.99.06,4.92.79,1.03,2.15,1.17,3.41,1.37.19.51.03.93.28,1.14,1.48,1.26,2.19.18,4.06-.54-1.26-.95-.92-1.86-1.01-2.92-.09-1.08-.96-1.91-.18-2.79.69-.77,1.26-1.47,2.68-1.29.35.04.79-1.08.39-1.29l-3.68-1.99c-.77-.42-1.26-1.03-2.33-1.29.72-.83,1.59-.54,2.55-.25s1.28-1.06,1.98-1.41c.39-.2,1,.81,1.66.27-.33,1.37-.82,2.82-.22,4.73,1.14-.69.61-2.88,1.74-3.29,1.49-.54,1.61-1.43,2.49-2.4,1.91-2.1,4.11-5.18,3.31-8.23-2.79-1.11-1.41-2.83-2.75-3.72-.36-.24-.85.16-1.4.09-4.17-.53-3.77-3.19-10.25-3.28-.8-2.71-1.68-6.34-4.94-7.1-1.61-.37-1.02,4.62,1.55,7.03-1.86,1.21-3.13,3.35-2.22,5.4.59,1.33,1.88,2.05,2.92,3.05-1.53,3.55,1.52,4.22.99,7.35-8.39.83-1.68.27-8.28-.85-.6-1.8-1.8-4.39-4.05-3.64-1.29.81-.54,2.96-.99,4.81l-5.65-4.74c-.91-.77-.93-1.71-2.46-1.82-1.02-.07-2.18-.52-3.27,0-.94.46-1.51-.93-2.13-1-2.04-.23-3.29-1.19-3.59-3.48-.05-.36-.74-.11-.87-.31-.43-.65-.08-1.94-.64-2.83-.15-.23-.6-.11-1.02-.31l-1.19-.57c-.42-.2-.79.83-1.24.79-2.35-.2-5.38-3.09-4.46-4.67.16-.27.81-.52,1.17-.17.33.33.56,1.34,1.08,1.09l.76-2.28c1.63,2.69,2.93-1.23,5.77-.98l.9,8.89c4.68-3.65-.92-4.18,7.04-6.58,2.11-.64,2.73-1.56,3.42-3.32s2.03-3.3,1.12-5.51c-.63,2.6-2.05,4.8-4.33,6.21l-1.4-.95c1.21-2.03-1.78-4.38-1.65-4.39-.21.02-.31.54-.46.88-.95-.45-1.97-.55-2.75.3-.24-.66.24-1.09-.16-1.71-1.32.47-1.44,1.52-1.41,3.03l-1.85-1.13c1.1-3.93,2.75-2.99,4.91-8.42.72-.2,1.43.83,1.52,1.33.13.73-.57,1.2-.93,2.44,3.61.03,1.82-2.27,4.48-4.52.88-.74,1.48-1.58,1.52-2.72.02-.84-.22-2.21-1.23-2.61-.25-.1-1.18.63-1.17-.18.64-.98,2.13-.92,2.69-1.94.18-.32-.25-.93-.02-1.11.29-.22,2.02-.99,2.23-1.2.3-.28.21-1.07.03-1.51-.5-1.21.56-1.84.68-2.5.21-1.12-.99-2.59-.2-3.99l1,1.67c1.56-1.05-4.03-5.27-1.96-7.71l2.14-2.53c.68-.8,1.24-1.85,1.94-2.64,1.12-1.26,2.81-1.89,3.58-3.56,1.6-3.49-5.77-9.01-2.94-12.57,1.19-1.49,5.1,3.56,5.32,4.71.32,1.65.23,2.83,1.92,3.88,2.91,1.81,2.55-1.39,4.81.57,1.12.97,2.51.52,3.82.42,1.17-.09,2.4.44,3.55-.14.68-.34.25-1.28.25-1.77.73-.31,2.29-.89,3.11-.29,1.04.77,2.05.63,3.11.88,2.73.65,4.42-.37,6.54-1.79,1.01-.68,2.28-.99,2.9-1.82.92-1.24.13-2.47.39-3.73.53-2.64,2.29-5.2.97-8.89-.44-1.22-1.13-2.28-1.68-3.38-.78-1.55-1.46-2.14-3.05-2.74-1.2-.45-1.97-.84-3.44-.45-1.86.5-3.95.43-5.66,1.56-1.1.73-.62,2.61-1.31,3.37-2.02,1.55-5.07,1.3-7.42,1.27-.67-.86.45-1.79.9-2.42.78-1.07,0-2.74.94-3.71,2.35-2.44-.51-2.17,2.53-5.4-2.06.02-3.71-.33-5.57.01-2.58.48-5.61.72-7.6-1.3-.8-.81.59-2.39.73-3.22,1.12-6.41,3.1-5.23-.3-9.66-.61-.8-.83-1.59-1.76-1.79-.73-.16-1.86-.15-2.69.44-3.75,2.67-5.42-.98-6.74-1.16-.63-.09-.99.61-1.44.8-1.73.74-1.99,1.93-2.59,3.43-.69,1.75-3.01,1.59-4.47,1.95-1.84.46-5.1,4.28-4.77,1.92.18-1.28,1.67-1.33,1.27-2.19-.31-.65-.71-.32-1.25-.23-2.59.45-2.5,3.49-2.67,2.28-.18-1.34-1.72-1.06-2.23-1.64-3.37-3.82-3.93-.16-5.67-1.97-1.28-1.34-2.5-.62-3.84-.32s-2.86-.88-4.12-.84c.4-.49.91-.59.95-.88.06-.36-.34-.69-.53-.87-.97-.9-1.19,1.3-2.19,1.31-.67,0-.94-.24-.87-.85.08-.73.54-.76,1.62-1.12-1.37-.65-1.16-2.29-1.92-3.17-1.12-1.31-3.21-2.1-3.63-3.99-.26-1.18-1.06-1.83-1.61-2.67-2.88-4.41-4.66-.39-10.23-5.48-4.32-3.95-3.05-6.71-3.99-8.08-.38-.56-.9-.9-.8-1.58.17-1.16,1.33-1.38,1.53-1.97.41-1.23-2.45-1.16-3.52-1.99-.29-.22-.28-.92-.45-1.16-.34-.48-1.11.06-1.57-.07-1.08-.3-6.9-2.85-6.02-5.07-1.15-.18-2.55.1-3.6-.74-1.35-1.08-2.96-.92-4.54-1.43-3.82-1.23-3.89-5.02-8.51-6.12-2.23-3.25-.35-7.64,2.92-9.39,3.65-1.95,3.22-3.63,5.64-4.95,2.8-1.53.63-4.53,5.19-12.12.53-.88.47-2.13,1.46-2.72,1.54-.92,1.84-2.57,2.81-3.89.51-.69,2.02-1.13,2.46-2.13,3.88.76,13.36-2.41,14.06-6.9.95-6.07,6.86-10.17,9.55-13.62l3.04-3.92c2.88-3.71,5.59-1.15,8.81-.41.31-1.39-1.2-1.52-1.33-2.26-.19-1.09-.56-2.56-.58-3.55-.02-1.12,1.26-3.18,2.21-3.66,2.48-1.24,5.27.22,7.71,1.07.95-.85,1.29-2.56,2.22-3.18,2.61-1.75,4.63,2.98,5.7,0,.23-.64.25-1.89-.88-1.8-.35.03-.7.06-1.02.16-.28.08-.34-1.01-.08-1.03,5.55-.3,3.59-1.65,6.2-3.29,1.57.25,3.62.3,4.25-1.51.43-1.25-1.28-1.96-1.5-2.74-.36-1.25,1.53-1.77,2.51-1.91,1.35-.2,1.89-1.62,3.08-2,1.03-.33,2.15-.41,2.54-1.36s.58-1.85-.13-3.14c.79-.19,1.13.67,2.17.29-2.13-2.44,1.31-3.13-1.77-7.46-.03-.42.72-.67,1.03-.65.48.03.68.97,1.13.89l1.81-.32c.35-.06,6.41,8.06,4.77,8.93.92,1.2.39,2.2.07,3.44-.35,1.36.22,6.22-4.21,7.51.3.81.93.79,1.43,1.16.48,0,.9.3.4.47-2.17.5-2.8,2.49-3.79,4.32-.26-.33-1.15-1.44-1.7-.88-1,1.02-1.72,2.27-2.28,3.63,1.72,1.48,2.02-2.77,3.15-1.24-.83,2.08-2.06,4.17-3.43,6.15-.59.85-1.58,1.46-1.36,2.72.28,1.65-.96,2.13-1.69,3.19-1.92,2.79-3.56,6.34-3.72,9.74-.21,4.44-.35,6.18-1.56,10.31-.98,3.35-1.22,6.76-2.03,10.21-.75,3.23-1.39,6.97-.31,10.22.27.81,1.53,2.26,2.19,2.82l7.57,6.45c1.13.96.74,2.32,1.21,3.48l4.47,11.06c.74,1.83,1.83,3.41,3.34,4.47-.24.93-.08,1.91.16,2.81.52,1.95-4.11,3.2-3.06,4.75.42.15,1.97.03,1.71.72s-.18,1.71-.51,2.3l-2.18,3.89c-1.76.96-2.62,1.83-3.56,3.68-.47.93-2.54,1.28-2.74,2.89-1.28,10.28.78,7.07.78,8.76v1.77c0,.45.98,1.58,1.79,1.23.87-.38,2.51-1.09,2.44-1.75l-.13-1.43c-.03-.29.67-.48,1.39-.82,2.09,3.85,3.52,1.98,4.67,2.79,1.43,1-.51,1.13,2.84,3.7.31-.16.54-.61.71-.56,1.81.51.93,2.79,1.15,3.39.61,1.64,1.97,2.78,2.96,4.09.13.3-.05.68.02.89.16.46.95.09,1.34.05,2.04-.24,3.9,1.12,5.83,1.39,6.35.87,5.19,7.01,12.49,4.51,1.81-.62,4.01,1.45,5.67,1.84,2.51.6,4.1,2.13,6.18,3.25,1.52.82,2.8,1.25,4.03,2.62.58.65,1.4,1.15,1.78,1.79.67,1.14-.36,1.85-.4,2.89-.17,3.82,5.22,8.52,5.76,9.75.46,1.04.43,1.78,1.22,2.81.79,1.02,1.29,2.15,2.27,3.17,2.69,2.83.46,7.23,4.81,8.09.26-1.23.56-2.88-.19-3.99-1.25-1.85-1.91-3.77-2.87-5.74-.67-1.38-1.46-2.5-1.65-4.14-.41-3.73-4.11-4.08-1.25-5.97-.31,2.09,2.15,2.92,2.82,4.59.63,1.58-.07,3.39,2.08,4.42,1.14.54,2.25,1.82,2.54,2.93-.74,0-1.03,0-1.21.07-1.66.59,1.22,3.44,1.4,3.8,3.06,6.03-.39,7.61,6.73,12.8,2.15,4.56,1.88,6.49,3.59,11.04.78,2.09.03,7.36-.4,8.84-1.26,4.28-3.24,8.71-1.5,13.17,1.01,2.57,4.59,5.75,3.14,6.29-.4.15-1.09-.33-1.2.01l-.41,1.29c-1.43,4.55.3-.55-.41,6.56,0,.09-.13,7.07-.14,7.09l-.5,1.47c-.14.41.74.97,1.32,1.23,3.25,1.47,1.49,4.94,3.11,8.07,2.08,4-.15,5.03,1.54,6.18.34.23,1.08-.87,1.42-.68l3.8,2.05-3.64,2c1.22.34,2.5.33,3.45.47,1.2-1.16,2.43-1.5,4.02-.51s4.36.65,5.59,2.12l2.29,2.73c.89,1.06,2.09,2.15,2.07,3.56-2.68-2.49-7.22-7.75-11.1-4.91.15.78.91,1.18,1.37,1.58-.95,1.08-.72,2,.05,2.99.53.68-1.63.8-2.16,1.94-.24.52.52,1.05.72,1.48-.18.79-1.39,1.46-1.22,2.52.76.53,1.18-.36,1.44-.09.3.31.12,1.27-.33,1.47-.48.21-.45-1.14-1.27-1.58-.97.14-1.14,1.23-1.89,1.46-3.78,1.16-4.13-1.96-5.88-3.09-.77.7-1.13,1.26-1.47,1.81.4,1.13,1.28,2.39.98,3.61s-1.51,1.82-2.04,3.14l-2.41-2.95c.43-.41.6-.62.75-.83.2-.28-.1-1.21-.66-1.24-1.15,1.47-3.16,3.18-3.06,4.68l.06.92c0,.23-.75,0-1.14-.18-.56-.26-.72-1.63-1.66-1.55-3.8.31-2.84-1.99-5.68-2.59,1.28-7.03-2.72-8.78-2.73-15.43-.53-.66-2.12.2-2.51-.2-1.95-2.01-1.36-.65-3.41-1.1-.28-.06-.24-.84-.68-.91-.35-.06-.62.27-.81.37-.78.4-.32-1.7-1.01-2.06-.36-.18-.88.46-1.31.35-.15-.28.22-.79.19-1.02-.12-.95-1.41.59-2.44-.95-2.1-3.11-3.42-2.47-4.11-3.8-.14-.27.62-.69.51-1.16-.5-2.16-4.04.17-4.39-1.98-.28-.1-.73.37-.78.57-.06.24.3.75,0,1.05-.41.42-1.84.5-2.29-.04-1.32-1.6-3.6-2.97-5.69-2.07-.52.22-.26,1.38-1.07,1.08-.48-.18-.79-.93-1.22-1.14-.71-.34-1.28,1-1.31,1.6-.04.88.43,1.76,1.45,2.23.19-.73-.13-1.04-.12-1.75.74-.08,1.74.04,2.43.65.45.39-.27.87-.43,1.16-.2.36-1.11.13-1.45.39-.8.61-.36,1.82-.78,2.66s-.99,1.77-.21,2.55c.82-.86.5-1.44.8-1.8.25-.29.96-.87,1.4-.5.89.73,1.39,1.75,2.1,2.67-.89.33-1.07.98-.89,1.85-.98.45-1.83.24-2.91.49.63-.84.67-2.51-.27-2.63v.02ZM146.46,270.15c-.74.06-1,1.24-.86,1.81.11.45.16,1.41.85,1.41.47-.86.99-1.24,1-1.71.02-.57-.23-1.56-.99-1.5h0ZM148.93,213.24c-.56-.46-.75.21-.26.64.27.11.54.68.73.65.27-.04.28-.46.19-.55-.13-.14-.33-.28-.65-.74h-.01ZM151.53,357.85c-1.15-.36-1.8-.4-2.36,0,.94.28,1.66.26,2.36,0ZM169.9,344.97c-2.46.94-4.47.36-4.46,1.89,0,.23.23.46.69.61-1.33-.43,4.28-.48,3.78-2.5h0ZM174.73,340.48c-1.08-1.97-6.11,2.54-5.26,3.27.95-.39,2.1-.56,2.86-1.21l2.4-2.06ZM173.74,343.74c-.62,2.2-.13,3.42-.19,4.92-.3-.88-1.73-1.5-2.02-.74.15,1.33,1.54,2.45,2.57,2.51,1.35.07,3.23.62,4.4-1.24-2.14-.19-1.84-2.03-2.63-2.97-.64-.77-1.53-1.25-2.14-2.47h.01ZM173.92,276.06l1.32.79.41-.69-1.32-.79-.41.69ZM183.96,352.44c.59-1.09-.48-1.64-1.39-1.72-.81-.07-2.05.53-2.84.76-.7,1.37.88,2.14,1.8,2.7.96.59,1.36,1.43,2.57,1.32.99-.09,1.6-.67,2.37-1.58.74-.87,2.22-1.31,2.4-2.41-1.68-2.39-3.24.99-4.9.92h-.01ZM181.2,339.41c-1.54,1.01-1.58,2.4-1,3.46,2.36,4.3-2.17,5.64-.43,6.6.36.2,2.21-.52,2.48-1.04.16-.32-.16-.81-.05-1.27.58-2.61.86-5.51-1.01-7.75h0ZM183.41,404.86c.16.59.6-.33,1.01.26.36,0,.24-.49.24-.9,0-.15-.3-.29-.56-.21-.14.04-.31.2-.69.85h0ZM197.01,359.08c-.53.72-.24,1.57.05,2.37l1.79,5.08c3.59-1.66-.99-4.6-1.84-7.46h0ZM217.72,383.82c-1.87-1.39-4.37-.56-5.9,1.07,1.5-.07,2.41-.03,3.36,1.34.47-2.04,3.54-1.66,2.53-2.4h0ZM220.18,393.77c-.88-.19-1.59-.16-2.26-.68-1.32,1.05-3.09,0-3.25,1.34,0-.09,3.51,2.77,5.53,1.61-.35-.63-.95-.81-.91-1.06.05-.35.64-.22.88-1.21h0ZM236.94,360.17c-.94,2.15-.33,4.42,1.51,5.18-1.19-4.3,1.24-.18-1.51-5.18Z"/>
        <g>
          <path class="cls-8" d="M229.36,75.12l2.74.57c.12-.06-3.93,2.9-2.85,2.02-.41.34-.74,3.72,1.84,4.79-1.82,1.22-2.06,3.87-3.3,5.24-2.01,2.2-5.82,2.27-7.86,4.09l-1.5,1.35c-.75.67-1.94.51-2.07,1.97-.74-.52-.75-.87-1.01-1.18-.33-.4-.84-.15-1.42-.15-.84,0-1.85-1.14-2.7-.76-1.2.53-2.36.28-3.58.52-1.67.34,1.83,2.31,2.44,4.7-5.03.43-3.89-1.86-4.99-1.55l-2.22.62c-1.08.3-2.24-.51-2.82.83-1.61-.76-4.67-4.06-5.46-1.77l-2.47-2.48c-2.31,1.08-6.88-1.04-6.32,2.67,1.31-.97,2.74-1.19,3.83,0,.37.4.79.62.62,1.18-.51,1.66-2.57-.27-3.5,2.5-.32.97-.86,1.87-1.85,2.09-.25-.79-.15-1.42-.27-1.99-5,2.94-.4,4.39-9.37,7.02-1.97.58-4.12-.26-6.06.18-.02-1.28.8-1.06,1.25-1.16.74-.18,1.28.36,1.71.6,2.27,1.27,3.03-1.2,4.2-2.18,1.19-.99,3.79-.41,4.36-2.79.17-.72-.16-1.65-.12-2.49.11-2.68,1.66-4.92,2.67-7.21.76-1.72,1.82-2.26,3.45-2.8s5.83-1.87,7.34-.73c.26.2,1.04.03,1.17-.3.25-.63-.83-.76-.47-2.33.22-.92,1.07.03,1.62-.24,1.03-.52,1.11-2.69.62-3.73l-1.37-2.88c-.67-1.42-1.28-2.66-.63-4.42-5.95,1.11-2.64-1.04-5.88-1.47-1.22-.16-2.14-1.31-3.34-1.7-.97-.32-1.84.55-2.36,1.18.4.54.73.9,1.14,1.35-1.01,1.73-2.48,1.2-3.89.8-1.9-.53-2.95-.84-4.13-2.56-.89-1.3-3.1-2.71-4.62-2.85-2.76,1.57-2.45-1.32-6.61-2.45,0-.62.5-1.33.29-1.74-.23-.45-.84-.6-1.34-.95.74-.53,1.27-1.48.6-2.29-.7-.84.31-1.67.13-2.28-.85-2.97-2.54-5.56-2.35-7.22.65,0,1.86-.08,1.77-.68-.15-1.08-1.18-1.54-1.6-2.26,1.01-.4,1.3-1.28,1.09-1.98-.7-2.26,1.26-2.78,2.06-3.81,1.85-2.4,1.72-6.13.85-8.66-.19-.56-.8-.72-.62-1.32.11-.35,3.01-.54,4.29-1.38-.49-1.38-1.1-2.61-.65-3.78.43-1.11.18-2.3.72-3.36l2.06-4.03c.85-1.66,2.34-4.5,4.53-3.66,1.44.56,2.44,1.71,4.34,1.41.61-.09,1.36.68,2.05.4.53-.22.86-1.34,1.41-1.49,1.13-.31,2.41.11,3.67-.14,1.08-.21,1.48,1.22,1.92,1.8.6.8-.65,2.09-.42,2.88.26.87,1.52,1.12.95,2.49-.18.43.59,1.03.92,1.1.39.08,1.2-.05,1.37-.77l1.14-4.91c2.02-.16,2.61-1.29,3.25-2.92.36-.92,1.75-2.48,2.65-2.69l4.02-.94c.61-.14.22-1.2.98-1.61.49.66.14,1.27.55,1.68.46.48,1.13.46,1.84.48,2.31.05,4.43.91,6.85.82l3.1-2.2c.97.62,1.03,1.88,1.64,2.84,1.7,2.64,6.09-.24,6.77,1.38.96,2.28,2.97,5.58,5.94,4.84,1.58.66,2.97,2.66,4.49,3.51,3.57,1.99,3.93,3.57,5.17,1.66.69-.09.6.21.26.79-.36.75-1.46,2.1-.73,2.93l4,4.51c1.03,1.16.63,1.88.08,3.15-.44.99.47,7.35,2.42,7.1-1.32,1.16-.19,3-.39,4.23-.28,1.77-1.56,3.29-.42,5.35.88,1.6.76,3.81-.38,5.25-1.41-.47-3.17-.11-4.3-.94-2.94-2.41-7.05-3.05-9.98-.27-.47.44-.53,1.16-1.2,1.51-2.2-5.55-9.04-.33-11.29,1.05-.92.56-2.18.92-2.36,2.23-.11.78.08,1.85.76,2.84-1.98-.48-3.5.21-4.64,1.58-.44.53-1.29.42-.85,1.34.35.74.76.77,1.74.56,4.11-.91,2.95,1.86,7.84,1.96-.74.95-1.27,1.58-1.09,2.18.38,1.26,1.24,1.74,2.44,1.72,2.51-.05,1.29-2.33,5.7-1.42v.03Z"/>
          <path class="cls-8" d="M222.06,93.59c-.76.19-1.56.15-2.43.17-.04-.72.42-.95.77-.94.51.02.87,0,1.67.77h-.01Z"/>
        </g>
      </g>
      <g>
        <path class="cls-8" d="M178.87,430.7c.8.81.82,1.45.89,2.37.19,2.45-1.49,4.23-4.08,4.39l-.48-1.98c-.76.69-1.52,1.14-2.35,1.61.7.94.82,1.65.19,2.2-.5.44-1.25.26-1.78-.43-1.06-1.37-6.31-4.07-8.11-3.89-.63-2.87.39-.26-3.62-1.91-1.53-.63-3.04-1.2-2.78-3.26l-3.61-1.09c-.51-.15-1.13,0-1.28-.49-.55-1.75,3.14-.94.68-2.82-.77.34-.76,1.16-1.6,1.77-.76-2.51-1.16-5.07-.14-7.27,1.83-3.95-2.19-3.45.32-9.05.75-1.68.51-3.15-.86-4.36-.86-.76-.27-2.29-.78-3.17-.39-.66-3.6-4.06-2.64-5.39,1.22-1.69,1.07.74,4.03-1.6.95-.75,2.3-.05,3.14.62,1.24.98,3.18.81,4.2,1.96.94,1.06,1.74,1.55,2.94,2.3s2.64,2.8,2.55,4.2c-.08,1.26-.87,2.52.7,3.37.32-.7.28-1.61.87-1.9.91-.44,1.21.39,1.66.88.6.66-.03,1.17-.02,1.99.02.9,1.49.37,1.77,0,.78.27.42,1.35.9,1.89,1.14,1.27,2.7,2.12,3.98,3.19,3.92,3.28,4.84-1.56,7.38-.25.59.3.89.87.66,1.9.67.47,1.4.53,2.08,1.12-.21,1.26-2.31,2.85-2.28,4.14,0,.48.74.57,1.04.94.8.95-.45,2.21-.35,3.18.28,2.76-.87,2.3-3.2,4.85h-.02Z"/>
        <path class="cls-8" d="M210.37,406.62c1.18-.92,2.28-2.51,3.58-1.71.64.4.5,2.11,1.51,2.4l-2.68,2.14c-.8.64-1.08,1.25-.93,2.36-7.53-2.13-2.94-6.26-8.27-6.54-.22-.72.06-1.5-.44-2.11-.8.83-.06,1.98-.88,2.48-.46.28-1.07,1.09-2.23.65,2.97-6.74-1.55-6.64-1.07-8.11.24-.75,1.45-1.2,1.36-2.4,3.2,3.21,6.32.19,8.5,1.97.7.57.77,2.07,2.37,1.63-.23.65-.3,1.06-.31,1.62-.81.23-1.58-.08-2.49.42.74.78,1.74.61,2.68,1.17-.51.79-.69,1.51-.14,2.2-.15.67-1.33.86-.55,1.83h0Z"/>
        <path class="cls-8" d="M184.71,414.29c0-2.22,4.85-2.53,6.07-1.95-.48,1.07-.91,2.06-.76,3.1-.23.16-.45-.06-.58,0s-.25.41-.15.5c1.23,1.15,1.55-.22,2.62.17.85.31.54,1.37.82,1.79,1.4,2.16.56,3.66-.8,5.46l-1.7,2.24c-1.62,2.14-4.25,3.75-7.12,2.87-.66-.36.28-1.74.2-2.29-.48-3.11,1.42-6.19,1.6-6.74.38-1.14-.45-2.87.8-4.03.13-.12.11-.8.09-1.06-.02-.23-.44.07-1.1-.05h0ZM190.11,420.95c-.56-.42-1.74-.3-1.86.48.42.4,1.23-.12,1.86-.48Z"/>
        <path class="cls-8" d="M194.23,412.16c.26.05.34.77.17.97-.8.96-2.85-1.09-2.73-.85-.38-.77-.51-1.64-1.13-1.97-1.99-1.08-3.76,1.69-4.5.69-.36-.49-.83-1.03-.72-1.61.23-1.13,5.79-2.75,6.77-.59.59,1.3.11,2.94,2.13,3.35h0Z"/>
        <path class="cls-8" d="M206.58,411.66c-.6,1.22-1.59,1.76-2.24,2.45l-2.42-3.36c-.67,1.27.21,2.31-.99,2.87-.41-3.19-1.84-1.45-.94-3.55.2-.47,4.81-1.01,5.38-.56l-1.37,1.1c.96.56,1.69.29,2.58,1.06h0Z"/>
        <path class="cls-8" d="M203.91,416.66c-.31-2.58,4.49-3.14,4.22-2.02-.71,1.38-3.01,2.27-4.22,2.02Z"/>
        <path class="cls-8" d="M196.21,408.63c.96.79,1.38,1.75,1.45,2.76.04.6-1.7,1.24-2.11.8-.84-.89-.55-2.65.67-3.56h0Z"/>
        <path class="cls-8" d="M197.74,416.74c.35.27-.39,1.27-.19,1.83-1.52-.29-2.13-1.72-1.62-2.96.41.42,1.03.52,1.81,1.13Z"/>
        <path class="cls-8" d="M193.47,414.38c.31-.21,1.42,1.46,1.42,2.13,0,.31-.03.77-.81.85-.81-3.32-1.28-2.53-.61-2.98Z"/>
        <path class="cls-8" d="M179.85,393.91c.07.54.54,1.63.12,2.3-.37.59-1.18,0-1.24-.4-.1-.72-.06-1.13,1.12-1.9h0Z"/>
        <path class="cls-8" d="M155.2,365.53c-1.4.08-2.63.3-4.15-.27,1.26-.45,2.64-.93,4.15.27Z"/>
        <path class="cls-8" d="M194.28,409.62c-.35.75-1.07.94-1.03.04-.03-.57-.27-.97-.07-1.38.14-.29.71-.28,1.09-.03s.34.68.02,1.37h0Z"/>
        <path class="cls-8" d="M183.68,382.99c.02,1.01-.07,1.32-.35,1.51-.32.22-.72.24-1.06.05.16-.81.69-1.3,1.41-1.56Z"/>
        <path class="cls-8" d="M201.72,415.66c.48.15.44.7.24.9-.35.36-.93.39-1.55-.17-.3-.28.86-.87,1.3-.74h0Z"/>
        <path class="cls-8" d="M179.76,382.59c.64.74.47,1.46-.02,1.96-.29-.75-.34-1.27.02-1.96Z"/>
        <path class="cls-8" d="M201.04,417.62c.44.06.46.35.03.48-.3.09-.64.1-.78.03-.11-.06-.14-.18-.12-.37.04-.35.45-.19.87-.15h0Z"/>
      </g>
    </g>
    <g>
      <path class="cls-8" d="M260.03,644.76c2,.2,3.59.58,5.32,1.53-.8.03-1.4.68-2.2.92-.9.27-1.9-.95-2.87-.87-3.24.27-5.94-.73-8.97-1.53-1.82-.48-3.94.18-5.59-1.03-.7-.51-1.38-1.02-2.34-1.13.02-.49.22-1.51.77-1.71,4.13-1.55,6.09,4.08,10.56,1.09,4.91.9,3.79,2.58,5.34,2.73h-.02Z"/>
      <path class="cls-8" d="M166.14,299.27c.87.1,1.51,1.28,2.47.69,1.49-.91,2.93-1.78,4.78-1.82-.81.19-1.06,1.17-1.83,1.57-5.6,2.91-9.21.46-13.31.27-1.49-.07-2.72-1.63-4.2-1.86-.87-.13-1.61-.22-2.41-.66-1.19-.65-2.53-.18-3.89-1.06,3.22-1.44,5.57-.43,8.53-1.48l-.9,1.47c.92.38,1.59.37,2.48.41.22,1.58,6.31,2.22,8.3,2.46h-.02Z"/>
      <path class="cls-8" d="M279.05,595.03c1.38.22,1.52,2.15,1.77,3.02-.61-.14-.77-.34-.93-.3-1.04.29.69,1.65-.27,2.26-.57-.79-1.11-1.47-1.52-2.27.32-.15.51-.32.67-.45.28-.23.3-.82-.11-1.15-5.13-4.14-7.87-3.1-8.66-3.31-.08-.02-2.89-3.85-2.99-5.49.18-.1.85-.08,1.02-.43.06-1.61-.69-3.72.46-5.1.89-.05,2.14.5,3.04-.17-.06.96-.27,1.53.16,2.26,1.73,2.96-1.31,3.19-.79,5.42.15.66.39,2.21,1.46,2.13,2.05-.15,4.02.23,4.5,2.41.24,1.11,1.22.99,2.2,1.15v.02Z"/>
      <path class="cls-8" d="M184.03,467.69c-.2,1.37-3.99-.21-10.38,4.35-1.49,1.06-2.54,2.21-1.68,4.45-1.2-.26-1.98-.75-2.67-1.3-.03-.59.21-1.47-.47-2.22l7.21-4.73c1.63-1.07,7.76-1.15,7.81-1.14.18.05.21.41.18.6h0Z"/>
      <path class="cls-8" d="M267.48,565.36c1.57.8.14,6.34-.44,7.75-.83-.77-2-2.34-1.74-3.46.4-1.76,1.42-2.99,2.18-4.29Z"/>
      <path class="cls-8" d="M289.7,639.22l-4.56,3.68c-1.02.82-1.29,2.47-2.87,2.55-.74-2.25,5.38-6.46,7.44-6.23h-.01Z"/>
      <path class="cls-8" d="M280.23,640.81c1.49,1.68-4.61,3.84-5.78,3.34.06-1.02,1-1.25,1.82-1.36,1.6.22,2.67-.35,3.96-1.98h0Z"/>
      <path class="cls-8" d="M292.05,626.33c1.73-.28,2.99-.11,3.63,1.36-2.06-.91-3.99-.05-6.15.48.15-1.29,1.23-1.62,2.53-1.83h-.01Z"/>
      <path class="cls-8" d="M272.57,644.27c-1.27,1.44-3.17,2.25-5.05,2.42,1.27-1.7,2.72-2.91,5.05-2.42Z"/>
      <path class="cls-8" d="M267.8,598.87c1,1.3.37,2.07-.3,2.99-1.06,1.45-1.87,2.91-3.29,4.09.15-2.28,3.15-3.42,3.59-7.08Z"/>
      <g>
        <path class="cls-8" d="M340.42,659.34c.4.7,2.12.22,2.37,1.21.27,1.07,1.01,2.25,1.99,2.65,2.81,1.16,2.64,3.51,3.34,5.75s.86,3.65.57,5.97c-.31,2.58-.37,4.5-1.86,6.74-1.16,1.74-1.2,4.43-1.91,6.48-.26.74.55,2.37-.49,2.62-1.98.49-3.5,1.49-4.49,3.38-1.19-.22-2.19-.7-3.23-1.33-.7.46-.96,1.11-1.51,1.72-3.28-.73-5.71.59-7.25-2.63-.71-1.48-2.18-2.13-3.73-1.39.18-.72.45-2.19-.49-2-.83.17-.72,2.04-1.99,1.57.51-1.48,1.43-2.82.47-4.47-.63.29-2.92,4.41-2.35,3.87-.2.19-1.12.15-1.25-.14-.46-1.06-1.54-1.56-2.34-2.26-1.65-1.45-3.3-1.26-5.28-1.34-1.63-.07-3.04-.38-4.6.5l-4.94,2.81c-1.3.74-2.38,1.16-3.52,2.01-1.25.94-1.35,1.73-1.99,3.06s-3.35,1.45-4.63,1.87c-3.94,1.3-2.57,4.38-4.47,5.67-1.63,1.1-4.42.55-4.52.46-.48-.42-.32-.98-.36-1.48-.26-2.85-2.68-4.2-4.5-5.9-1.73-1.62-3.07-3.14-5.24-4.19.54.26-4.3-2.89-3.97-3.61.26-.23.67-.08,1.02-.47-.82-1.12-2.77-1.32-3.43-2.61-.32-.62-.46-4.74-.1-5.18.1-.12.45-.04.68-.17,1.73-1.03,2.59-3.29,4.25-4.42l5.23-3.58c2.08-1.42,3.76-2.26,4.57-4.83.36-1.14.99-2,.92-3.47-.03-.76.81-2.08,1.11-2.58.55.47.46.71.46.89.01.36.77.89.99.26.11-.3-.13-.91-.22-1.25-.16-.59.83-.63.99-1.11,1.01-3.01,4.81-8.66,7.23-6.11.63.66,3.17,1.06,3.25.16.14-1.51.77-2.51,1.24-3.78.72-1.93,1.55-3.23,3.85-3.43.5-.04,1-.88.8-1.22-.28-.48-.75-.58-1.53-.86,2.59-1.63,3.65,2.33,9.6-.65.44-.22.87.33,1,.58.56,1.12-1.08,1.46-1.72,4.5-.13.61-.68,1.15-.42,1.76.61,1.42,2.96,1.02,5.81,2.86.63.41,1.52.11,2.17.61,1.11.85,3.47,1.44,4.21-.31,2.5-5.92-1.13-9.57,1.59-15.47l2.89,4.5c.58.91.15,2.63,1.45,3.09.53.19,1.05-.74,1.38-.93.32.96,1.43,1.12,1.71,1.8.51,1.26.53,2.66,1.53,3.68,2.33,2.38.42,4.49,3.57,5.13,2.89.59,4.55,2.35,6.08,5h0Z"/>
        <path class="cls-8" d="M267.49,621.35l1.89,1.5c-.92.58-1.78.65-2.13,1.21-1.1,1.78.54,3.23-.89,4.31-1.29.98-1.1,2.23-.98,3.67.11,1.18-.54,2.18-.08,3.61-.99-1.04-2.07.5-2.77.29-.45-.13-4.14-3.32-6.41-.74-.81-2.27-2.72-.99-3.87-1.61-.95-.51.26-1.63-2-3.68-1.92-1.75-2.67-5.85-1.17-6.92.82-.58,1.93.67,3.17-.27.55-.42.3-1.42.69-1.95.71-.97,2.5-.45,3.18-1.41l2.93-4.15c-.9,1.28,5.03-5.66,4.91-5.7.24.08.66.63.81.86,2.19,3.36,3.67.76,4.46,3.18-1.13-.15-1.24.86-1.78,1.6-.64.87-2.3,2.08-1.51,3.43.54.92,1.61,1.45,1.53,2.78h.02Z"/>
        <path class="cls-8" d="M337.1,633.7c-7.65.6-6.62-3.94-10.42-3.9-1.39.01-3.06.42-3.79,1.85-.23.44.36,1.16.09,1.37s-.69.85-1.19.87c-1.17.05-2.76.49-3.91.04-1.37-.53-2.56-1.71-4.14-.73-.76.47-1.7.94-2.55.82-.47-1.24.81-1.65,1.12-2.56s-.74-2.84-1.64-3.4c-1.89-1.17-4.11-1.09-6.14-1.14-1-.03-2.12-1.47-2.94-.85l-1.48,1.12c-.5-.83-.98-1.7-1.79-2.16l1.82-1.7c-1.44.44-2.01,0-3.01-.54-.98-.53-2.26-.13-2.97-1.19,1.95.18,4.32-3.14,7.11-1.33,1.06.69.37,3.08,2.21,3.99,3.27,1.63,1.29-5.48,9.29-3.74,6.28,1.37,11.04.28,15.55,4.44.89.82,3.44-.03,3.99,1.6-.53.11-1.68.09-1.84.61-.14.47.48,1.41,1,1.52,1.49.29,2.11,1.54,3.22,2.12,1.8.93,3.52,1.79,5.41,2.54-.93,1.25-2.01.29-3.01.36h.01Z"/>
        <path class="cls-8" d="M75.07,632.16c1.52,2.66,3.46-.83,4.69-.23.16,2.23-1.04,3.72-2.27,5.29-.52.67-.54,1.91-1.66,1.96-.31.01-.69-.42-.94-.46-.47-.09-.7.88-1.01,1-1.29.52-2.23,1.3-3.4,1.97l-10.72,6.08c-1.32.75-2.7,1.85-4.12,2.19-.72-.33-2.29-.59-2.86-1.06-2.07-1.74-1.16-4.16.22-5.89,1.12-1.41,1.3-3.38,3.14-4.07,5.93-.44,4.22-4.11,6.9-5.72.88-.53,1.9-.74,2.49-1.51,1.28,1.88,9.31,3.38,9.52.44h.02Z"/>
        <path class="cls-8" d="M240.66,632.44c4.02,1.7,1.94,1.49,2.78,7.81-.56.14-1.91.57-2.39.03-1.25-1.4-2.84-2.03-4.23-3.23-4.89-4.23-5.13-6.88-8.27-9.56-.95-.81-.93-2.65-2.02-3.4-1.29-.89-2.24-1.88-3.28-3.01-1.24-1.35-3.12-1.93-3.92-4.04,6.41-.65,4.02,1.01,9.73,4.52.67.41,1.02,1.59,2.01,1.64,1.46.07,2.56.62,3.65,1.66l2.72,2.59c.31.29-.35,1.28-.15,1.62.33.58,1.07.61,1.66.98.77.48.59,1.91,1.72,2.39h0Z"/>
        <path class="cls-8" d="M283.5,523.16c.85.31,1.55-.73,2.34-.39.91.4,4.35,2.27,3.35,3.47-.22.26-.83.39-1.26.11-2.16-1.43-2.78.65-4.28-.12-.3-.15-.09-.86-.36-1.29-2.66-4.27-1.62-7.29,1.15-11.03-.36-1.29-1.24-2.16-1.84-3.44,1.46-.64,1.3-1.8,1.16-3.11-.66-6.26-4.32-4.43-4.77-6.34-.14-.6-.16-1.98.73-2.05,5.46-.42,2.92,2.08,6.67,4.23.76.44,1.9,1.23,2.6,1.91,1.21,1.17.43,3.63-.3,4.92-1.99,3.49.3,4.57-.78,5.93-.71.9-1.56-.13-2.46.39-.22.13-.53.82-.12.97.56.21,1.13-.21,1.38.32.79,1.72-.95,1.63-.31,2.63.2.32.55.47,1.22.81-.41.35-.95.69-1.45.75-.62.07-1.04-.48-1.79-1.23-.5.6-.6,1.38-.85,2.56h-.03Z"/>
        <path class="cls-8" d="M279.58,495.16c-.77.78-1.55,1.16-2.28,2.18,1.03.83,1.5,2.36.38,3.49-.79.02-2.42-1.05-2.61-2.13-.08-.48.51-1.01.47-1.4-.13-1.28-3.1-1.9-2.98-3.35,2.28-.22,4.37-1.59,4.63-3.72,3.45-.15-.25,1.85,2.4,4.93h-.01Z"/>
        <path class="cls-8" d="M276.39,627.99c-.04.89,1.28,1.24,1.43,1.96.66,3.06,2.47,2.38,2.4,4.24-.02.45-.48,1.26-1.05,1.57-.49.05-.84-1.11-.42-2.01-.7-.24-.95.36-1.74.45,0-1.15-1.05-1.58-1.67-2.36-.28-.35,0-1.25-.44-1.48-.42-.22-1.18.26-1.08.88l.66,4.32c.11.71,0,1.3-.62,1.52-2.52.87-.29-2.6-1.74-4.08-.45-.46-1.2-.54-1.38-1.05-.22-.63,0-1.14.23-1.81.47-1.39.53-8.29,3.02-8.68,3.37-.54,4.87.79,8.64-2.64-.94,5.23-5.41,2.08-9.85,5.11-1.05.72.56,3.14,1.7,2.8,1.77-.53,3.21-2.39,5.49-2.3-1,.52-3.58,3.42-3.58,3.55h0Z"/>
        <path class="cls-8" d="M280.61,601.24c2.49-1.01,3.82,5.82,2.86,6.64-.44-.48-.63-1.81-1.22-1.31-.4.34-.54.84-.27,1.29.23.38.71.62.74.98.02.31-.51.52-.72,1.26-.71-.45-1.62-.75-2.46-1.19-.91-.48-.24-2.01-.69-2.54-1.21-1-3.02.71-3.97,1.86-1-2.77,1.45-3.04,2.35-4.57.42.44.9,1.07,1.48.75.07-.04,2.29-2.36,2.03-1.92.2-.35.02-.72-.13-1.24h0Z"/>
        <path class="cls-8" d="M100.28,457.84c.49.67.28,1.57.59,2.28-1.32-.18-2.01.32-2.98.95-2.21,1.43-5.63.7-6.43-2.07,5.33.73.88-3.14,8.82-1.16Z"/>
        <path class="cls-8" d="M186.6,609.82c2.01.67,5.1,4.97,2.91,6.7-.69.55-1.8.43-2.28,1.04-1.79-2.46-2.02-5.21-.63-7.74Z"/>
        <path class="cls-8" d="M277.65,598.51c.1,1.51-.64,3.07-1.43,4.35-3.06-.42.64-4.12-1.63-3.31l-1.36.48c.27-.96.15-1.77-.61-2.98.99-.07,2.5.19,2.77.83l.41.97c.21.49.75.52,1.86-.34h-.01Z"/>
        <path class="cls-8" d="M271.29,595.87c-.91-.32-1.7-1.17-1.88-2.11.67-.06,1.22-.15,1.62.08.51.29.62.8.26,2.03h0Z"/>
        <g>
          <path class="cls-8" d="M249.2,457.77c-1.8,2.11,1.92,7.34,3.39,6.56.06,1.35-.07,2.58-.57,3.81-.64-.22-1.2-.4-1.59-.14-1.41.92.32,1.66-1.23,4.2-.86,1.41-2.28,3.58-1.87,5.37.95,4.13,2.12,7.86,2.89,12.2,1.25-.53,2.17-.71,3.52-.62.47-.81-.02-1.71.47-2.39.62-.85,2.09-.23,3.01-.57.57-.21.27-2.08-.54-2.21-1.05.02-.93-.95,0-.95,5,2.91,5.49,4.63,11.15,4.07-.34,1.09-1.18,1.01-1.38,1.37-.4.74.16,1.08.55,1.56,2.02,2.51,3.88-.34,4.64,1.29l-.71.7c-.25.25.1.73.06,1.42-1.8-.75-3.8-1.5-5.55-2.64-1.82-1.19-3.21-2.86-5.83-3.1-.01,2.47,4.43,4.64,5.71,7.04.81,1.53,1.58,3.08,2.31,4.66.87,1.86,4.53,11.71.19,12.14.12,1.66-.37,3.62.09,5.15,3.08,3.96-.17,5.14,1.34,6.73.75.79,5.54-2.35,9.41,2.01-.03,1.67.14,3.2-.16,4.92-1.8-.81-3.41-1.78-5.39-1.51-.23-.73-.47-1.28-.95-1.3-2.69-.13-2.43,2.31-3.73,1.81-.61-.24-.56-2.21-1.48-2.16-3.51.19-2.63,4.97-4.55,6.11-.05.96-.66-4.47-1.77-3.87-1.72.93-1.91,3.4-2.98,4.84-.36.48-1.29.53-1.57,1.18-.24.55.06.96.53,1.48.43.48,1.49-.09,1.76.22l1.1,1.25c.51.58,1.83-1.49,2.43-2.57,2.92,1.31,1.87-.41,3.5,1.83-1.97.05-2.78,1.16-3.47,2.63-.53,1.13-1.84,1.84-1.88,3.37.49.57,1.25.66,1.98.95.95,1.88,2.14,3.69,3.6,5.19,1.08,1.11-.45,2.52-.16,3.28.5,1.34,1.5,1.78,1.5,3.13,0,1.73-.75,2.08-1.54,3.42-1.54,2.62-1.79,5.81-3.5,8.3-4.81,6.99-6.05,5.62-8.02,7.46-.44.41-1.27.25-1.78,1-1,1.47-2.93,1.96-4.4,2.87-.69.42-.61,1.36-.87,1.92-.36.76.73,1.22.99,1.76-.38,1.54-1.82,4.8-3.74,3.8-.81-.42-.95-1.66-.33-2.49.76-1.01,2.01-1.21,3.06-1.86-.6-.75-1.14-.53-1.35-.84-.2-.29.04-1.11-.23-1.36-2.81-2.69-8.03,4.49-7.51,6.27.61,1.54,2.31,3.3,3.55,4.52,1.17,1.14,2.77,1.49,3.42,3.17.88,2.31,1.66,5.15.73,7.6-.72,1.5-2.67,2.21-3.78,3.46l-3.39,3.81c-.95-.86-.57-1.74-.73-2.66s-1.42-1.24-2.19-1.3c-3.02-.26-.9-4.09-6.53-3.72.07-.64.29-.9.25-1.15-.06-.35-1.46-.49-1.5-.03-.39,3.81-1.88,7.08-1.26,8.2.21.37.99.37,1.48.79,1.01.88.71,2.9,1.93,3.57,2.2,1.2,4.76,2.13,5.79,4.63.46,1.13.07,2.45.66,3.6.58,1.14,1.84,2,1.89,3.31.03.63-1.37.61-1.83.19-2.83-2.6-4.68-1.05-7.53-9.87-.31-.95-1.46-1.61-1.84-2.47-.43-.99-1.69-.83-2.11-1.25-.78-.77.07-2.21.06-3.09l-.02-3.37c-.03-4.27-1.93-4.37-2.37-8.47-.1-.9-.59-1.91-1.4-2.16-1.23.81-2.06,2.46-3.37,2.42l-2.27-.07c2.03-2.91-1.04-7.49-2.52-8.38-2.71-1.62-1.35-5.22-4.23-5.58-.84-.1-.67,1.58-1.14,1.76-1.21.48-2.5,0-3.72.89-.6.44-2.4-.19-2.73.88-1.32,4.28-3.07,2.13-5.51,5.33-1.16,1.53-2.85,2.31-4.2,3.61-.98.95-1.42,2.06-3.14,2.25-.62.06-1.56.42-1.85.87-1.27,1.9,1.25,3.37-.59,7.39-.43.94.38,2.32-.28,3.13-.32.38-1.06.48-1.32.87-.38.56-.3.97.17,1.9-1.8-.57-2.23,1.24-3.26,1.81-1.48.81-2.96-1.66-3.42-2.86-2.17-5.71-3.45-3.96-4.3-9.01-.24-1.46-1.75-2.31-2.25-3.61-.83-2.17-1.23-4.46-1.74-6.75-.34-1.52.45-3.22-.56-4.56-1.39.4-2.82,1.4-3.98.66s-1.23-2.27-2.35-3.22c.28-.21,1.19-.41,1.13-.89-.25-2-2.29-2.77-3.19-4.03-.4-.75-.04-2.12-.7-2.81-.74-.78-1.51-.72-2.74-.81-8.47-.62-6.28-.3-13.81-3.73.06-1.22.46-2.63-.44-3.3-1.02-.77-2.31.23-3.39.26-1.3.03-2.45-1.23-2.89-2.37-.38-1.01-1.33-1.41-1.81-2.22-.92-1.55-.39-3.42-.84-5.29-.28-1.2-2.83-2.69-3.73-1.53-1.41,1.81-.65,4.85.15,6.76,1.3,3.08-1.01,2.68.18,4.38.35.49.8-.26,1.34-.47.56-.22.78.27.8.54.09,1.79-1.45,1.96-1.11,3.43.35,1.52,4.1,2.1,4.47,1.91,2.16-1.14,4.1-2.41,5.89-3.96-.97,1.87-1.66,3.9-.47,5.79s2.04-.6,3.79,5.17c-1.36.97-2.48,2.95-3.91,3.29-1.91.45-1.68,2.39-2.57,3.25-.73.7-2.74,1.24-3.46,2.1-.49.59-2.4.04-2.82,1.3l-4.96-1.72c-1.88-.65-.84,2.64-6.5-.05-1.24-.59-2.6.24-3.47-.07-1.2-.43-2.06-1.22-3.61-1.13-1.08.07-2.04-1.52-3.15-1.3-1.2.24-1.77.31-2.75-.53-.49-.42-1.38-.53-1.57-1.16-.18-.59.12-1.32.23-2.01l.59-3.72c.38-2.39.81-4.23.73-6.8l-.16-4.92c-.05-1.6-1.62-3.57-.76-5.16,1.33-2.46,1.1-4.5,0-6.97l.22-3.92c.11-1.99.46-4.3-.97-6.03-.2-.25-1.01.11-1.27.1-.41-.01-.44-.84-.94-1.04-1.36,3.25-.57,6.42-.89,9.53-.1.98-1.31,1.73-.41,3.05,2.17,3.18-2.51,6.15-1.56,8.88.84,2.39.78,4.3.41,6.79-.28,1.89,1.29,3.71,1.81,5.47.67,2.27,1.17,4.37,1.99,6.57.13.35-.1,1.01-.23,1.3s-.69-.22-1.2-.1c2.18,5.77.13,3.39,3.72,5.36,2.18,1.2,4.38,1.85,6.66,2.76,1.92.76,3.51,1.89,5.86,1.91-.28,1.84-1.25,3.39-3.05,4.27-6.73,3.29-14.37,5.65-21.99,5.12-4.44-.31-8.29-.37-12.64.48-2.37.46-4.61-.08-6.98,1.42-1.22.78-3.22.55-4.44,1.84-.71.75-.55,1.63.24,2.41-3.6,1.01-3.65,4.04-4.26,6.93-1.45,2.21-3.39,4.13-5.04,6.28-2.03,2.65-5.6,1.83-8.48,1.03-2.08-.57-4.31.27-6.44.12-3.34-.24-1.28,2.86-5.18,7.04-.77.82-1.2,1.51-2.63,1.17-1.92-.47-3.69-1.07-4.79-.25-.21.16.02.74-.08,1.04-1.28,1.01-2.57,1.96-3.72,3.14-.81.83-2.08.3-3.06.73-3.48,1.54-7.15,3.05-10.93,2.83-5.79-.34-3.85-4.11-12.07-4.29-3.25-4.32,1.45-6.85,1.62-8.58l.78-7.68c.24-2.33,0-4.17.84-6.22l3.38-8.21c1.56-3.79-1.15-12.23,4.61-16.22,1.2-.84,2.3-2.45,4.09-2.65,2.29-.26,3.85-2.24,3.53-4.55-.22-1.59.6-2.19,1.43-3.11,1.18-1.32.66-3.44,1.07-4.93,1.73-6.35-2.08-9.26-.51-14.59.92-1.26,3-2.06,3.8-3.83.62-1.38,3.5-.5,1.15-7.04-1.16-1.41-3.4-1.55-4.65-2.87-1.73-1.83,2.39-3.69-.88-6.57-5.15-4.54-11.05-4.66-12.36-5.96-2.48-2.47-4.36-5.51-7.24-7.57-1.39-1-2.04-2.17-1.73-4.01l1.52-9.26c.35-2.12.54-3.82,2.21-5.2,1.28-1.06,1.19-3.06,1.83-4.44.56-1.21,1.36-2.01,1.27-3.57-.29-5.01,3.61-3.92,4.92-7.9,3.23,1.11,11.86-3.83,12.29-6.7.26-1.69,2.28-.74,3.04-1.07,2.07-.91,3.95-.25,5.86-.51,1.87-.26,3.14-.62,5.17-.19,1.4.3,2.68.04,3.82,1.23.96,1,4.02,1.8,5.31,1.26.52-.22,4.75-4.1,8-2.04,3,1.9,4.34-.13,6.98.6-.25-.84-.14-1.29.27-1.72,1.94-2.03-2.1-3.19-1.39-4.28.6-.68,1.85-.75,1.96-1.76.34-2.99,2.63-.26,6.63-4.17.69-.67,1.57-1,1.92-2.07l2.57,1.01c1.84,2.49,3.47,5.34,6,7.26,1.04.79,2.39-.69,3.2-1.06,2.91-1.32,3.94-4.54,2.56-7.35-.18-.37.24-.71.41-.9,1.1-1.22,2.91,1.44,3.61,2.22.77.08,1.33-1.04,1.79-1.63-.29,3.67,6.47,2.17,6,2.16,1.75.06,3.75,1.25,5.38-.02,2.25-1.75,3.98.79,5.9,2.1,1.47-1.02,3.7-5.58,5.37-5.41l3.12.32c-1.53,1.14-2.62,1.5-2.67,3.24-.94-.52-1.57-.48-2.11-.01-1.12.98-1.57,2.42-1.33,3.75.1.55.9.5,1.38.85.62.49.13,1.62.55,2.47l4.49,1.24c.35.67.25,1.49.73,2.06.38.45,1-.26,1.31-.2,3.5.71,1.85-3.63,6.32-3.83-.03.89-.48,1.53,0,2.41,3.42-.88,1.48-4.54,3.12-4.51,1.45.03,2.5,1.39,3.21,2.61.4.69,1.97,1.71,2.44.86,1.13-2.07-4.54-4.22-4.87-5.29-.24-.6-.17-2.11.05-2.7.77-.77,1.77-1.7,2.45-2.61,1.15-1.53,5.7.1,6.62-.4,1.09-.6.29-2.32-.54-2.81-1.09-.63-1.98-.32-3.12.36-1.21.73-2.8-.39-4.14-.45-2.77-.12-4.64,2.41-4.38,5.1-4.06,3.19-3.18.38-4.66,2.04-1.09,1.22-2.34,2.64-3.89,3.09-.42-.12-.98-.81-1.48-.65-.44.14-.91.79-1.25.84-.44-.32-.62-1.01-.93-1.28-.4-.34-.81.13-1.43.59.03-1-.01-2.06.8-3.12.52.44.98.9,1.81,1.23.7-1.99,3.98-6.56,3.85-7.74-.1-.89-2.69.72-3.96-.65-.76-.83-.74-2.18.07-3.07,1.38-1.52,2.69-3.22,4.34-4.42,1.42-1.03,3.43-.09,5.03-.33,5.56-.84,15.47.07,20.35,2.19,1.07.47,1.79,1.92,3.37,1.38,3.39,2.89,1.93,2.09,2.23,3.76.08.43-.91.27-1.57.74.6.83.62,1.99,1.03,2.88.7,1.52,4.67,9.01.56,8.84-2.83-.12-2.37-3.8-4.55-4.54.6,3.42-1.58,3.32-1.29,5,.1.58.39,1.83,1.2,1.33.42-.26.37-1.63,1-1.18.84.6.79,1.88,1.79,2.7.83-.47.65-1.15.91-1.83l2.57-.64c.27.2.59.7.72.92,1.36,2.17,1.59-2.35,2.63-3.56.92.47,1.58,1.65,1.65,2.68-.54.14-1.58-.11-1.7.72-.08.63.21,1.04.82,1.45.7.47.94-.5,1.55-.71,1.66-.58,3.65-.38,5.41-.63-.07.6-.82,1.4-.15,1.55,1.4.32,2.73.09,3.95.5.28.09.33.87.56.89,2.09.16-.03-3.28,1.66-2.59,2.48,1.02,3.56,3.42,5.35,5.42,1.24-1.22.03-2.09-.21-3.23-.16-.76.07-2.48.57-3.15.85-1.16,2.13-1.68,2.79-3.08.36-.76,1.51-.05,1.96.25.87.59-.33,1.58-.42,2.23l-.65,5.24c-.22,1.76.58,3.27-1.12,4.81-.35.31-.85,1.18-.46,1.93,2.3-.77,3.33-2.88,2.92-4.98l-.49-2.52c1.22-1.17.6-2.55.78-3.8.14-.93,1.92-1.62,1.23-2.9.76.67.3,1.29.75,1.98.95-.35,2.18.09,3.05-.54.68-.51.07-1.83.52-2.54l3.43-.43.29-2.12c1.3-1.02,2.7-2.26,4.29-2.89,1.37-.54,2.83-1.02,2.8-3.01,0-.34.47-1.07.82-1.07.83.02,1.48,1.12,2.22,1.08.7-.1,1.58-.73,2.47-.41.55.2,1.51.48,1.56,1.49s-.82,1.89-.92,3.02c1.82.67,3.14-.59,4.74-1.1.93-.29,2.94.68,2.91-1.19,0-.25-.61-.71-.55-1.03.08-.36.72-.08.99-.26,3.27-2.19,3.3,2.78,6.46,1.62-.02-.74-.51-1.12-.62-1.78,1.27-.74,2.52-2.21,2.75-3.56-.32-.4-2.02-.92-1.38-1.78,4.25-5.76,4.7-3.37,6.32-4.54,1.59-1.14.58-2.95,2.14-4.2.84-.67,2.17.51,2.78-.39-.16.23.73-3.63,1.46-5.35.24-.58,1.55-.48,1.54-1.58-.8-.63-1.47.1-2.46-.26.52-1.67.23-3.65,1.17-5.05l5.06-7.46c.78-1.15-.13-3.66,2.1-4.21.54-.13.88,1.19,1.33,1.45.76.44,1.56-.26,2.42.1.03,1.5-1.05,2.63-1.97,3.69-.43.5-.7,2.18-.18,2.58.88.68,1.66,1.66,2.35,2.35,1.45-.26,2.73-1.33,3.84-1.97.63.63-.08,1.38.05,1.99.73,3.22,2.39,5.97,4.6,8.42-2.95,2.28.33,2.35-.92,5.19-.11.26.58.72.52.98-.08.29-.47.72-.68,1.16.96.85,2.07,1.8,3.04,2.77.66.66,1.13-.52,1.63-.68.78-.25,2.25.17,2.77.78.46.55.45,1.26,1.01,1.71s1.37-.03,2.03-.06c.16,2.38.18,3.07,2.54,3.76l.32,2.47c1.62.57,2.8,1.81,2.84,3.47-2.72.2-5.06-.5-7.5-.93s-3.96-1.67-5.48-3.37c-.81-.9-.79-1.51-1.15-2.69-.66-2.15-2.74-3.63-3.59-5.74-.66-1.64-1.91-3.17-3.83-3.19-.61.59.48,1.33.92,1.73,1.07.98,1.4,2.43,2.32,3.52-.84.21-2-.64-2.64.11h.08ZM56.84,611.52c-.93.4-1.65.61-2.1,1.67.98-.08,1.97-.72,2.1-1.67ZM54.82,598.11l.09,2.76c1.26-.66.21-1.94.45-2.81.4-1.45,2.02-2.51,2.25-4.22-.63-.26-2.81,3.8-2.79,4.27h0ZM69.31,591.58c-2.91-1.17-3.1.62-5.45,2.74.75.57,1.82,1.44,2.68,1.49,1.66-1.19,4.79-.63,4.42-2.92-.11-.68-.82-.98-1.65-1.32h0ZM104.51,512.37c-2.08,3.84-.76,2.19-1.4,5.2-.79-.46-1.13-.42-1.6-.37-.7.09-1.28,1.08-1.11,1.72-1.05-.05-1.35-1.02-1.49-1.86-.13-.8.62-1.55.84-2.45l1.66-6.83c.19-.77,1.51-.99,1.68-1.76.7-3.29-2.49-5.8.21-10.85-2.85.07-.12-1.11-.44-2.14-.09-.29-.73-.72-1.14-.61-2.11.56-2.3,2.43-2.37,4.25-.05,1.39-1.29,2.91-.47,4.36.5.88.15,1.42.31,2.38l.59,3.74c.04.27-.09.53-.38.61-.13.03-.16.03-.19-.07l-.18-.68c-.15-.56-.49-1.08-1-1.18-.33-.07-.98.24-1.04.71-.03.27-.03.46.09,1.08-1.26.94-3.05,1.23-4.66.78-.64.52-.82,1.24-1.6,1.45-.79-1.39-.91-2.91-1.97-4.32.27-.29.71-.4,1.17-.65,1.07,1.12,2.22,2.54,3.74,3.04,3.46-.79,2.17-6.13,1.62-8.5-1.25-5.32,3.24-7.66.37-9.32-1.09-.63-2.85-.12-3.96-1.02-.65-1.4-1.65-3.93-3.57-3.5-1.08.24-1.58,1.57-2.74,1.35-.94-.18-1.62-.57-2.58-1.12-.7-.41-5-.19-5.53,2.21-4.3-.35.09.78-6.1-.47-1.34-.27-1.87-2.26-3.12-2.9-.82-.42-1.98-.3-2.21.41-.57,1.83.86,1.34,1.64,3.94.38,1.27,1.78,1,2.57,1.55,1.28.9,2.56,1.33,3.95,1.93,2.58,1.12,3.96,3.89,6.05,5.52,1.22.95,2.2,1.44,2.8,3.1l2.65,1.78c.34.23-.02,1.08.23,1.34.33.34.77.14,1.05.65-4.14.15-.93,2.58-5.44,3.18-1.28,2.08.15,4.8,1.63,6.26,1.61,1.59.48,3.47,1.16,4.9l2.37,5.01c.3.63,1.47.56,1.96.4.44-.15.65-.79,1.15-1.29.91-.92,2.4-.73,3.46-.05.96.62,1.3,1.62,1.76,2.85,1.05,2.78,4.06,5.03,4.85,6.76,1.28,2.79,3.5.23,5.51,3.43.5.8,1.23,1.39,1.86,2.11.8.92,2.19.86,3.04.02,1.5-1.49,3.18-2.52,4.87-3.76.09-.07,2.41-2.5,1.48-4.29-.7-1.34-4.42.14-4.93-2.82-.33-1.87-2.09-1.16-2.98-1.63-3.1-4.94-2.49-.69-1.83-6.91.51-.6,1.35-1.22,1.47-2.22,2.49-2.21,5.02,2.18,4.98-.24-.02-1.36-2.85-1.69-4.05-.58,0-1.08.21-2.04-.39-2.7-.4-.43-1.24-1.1-2.03-.84-.3.1-.19.92-.44,1.09-.61.43-1.11-.69-1.81-1.21l-.02.03ZM123.15,513.39c.09-.27.68-.5.7-.86.03-.42-.15-.8-.44-1.33.56-.32,1.23-.04,1.92-.74-1.09-1.04-1.54-1.99-2.11-3.15-1.76.17-2.83,1.47-4.08,2.02-.6.27-1.52-.39-1.98.71-.26.61-1.03.95-1.71,1.23-1.89.79-3.02,3.11-1.71,4.89.67.91,1.8,1.5,2.64,2.19,3.45-.81,6.28.96,7.52,3.95.98,2.38,6.07,5.4,7.69,3.02.91-1.35,0-2.49-.48-3.73-.69-1.82-1.2-3.55-2.09-5.3-2.09-4.09-3.7-.86-5.88-2.91h.01ZM133.22,511.85c-3.39-.5-5.78-1.74-6.38.36-.24.83,2,3.02,3.21,2.35.73-.4,1.33-.94,1.53-1.92.62-.26,1.69.34,1.65-.78h0ZM146.13,526.84c1.57.1,2.05-.05,2.58-.95.71-.12,1.3.73,2.14.53.61-.15,1.15-1.74,1.02-2.4-1.59-2.28-4.52-2.27-7.04-1.42-1.06.36-3.22.1-3.22,1.85,0,1.2-.07,2.34-.3,3.56-.12.62.76,6.6,1.48,7.09-1.1-.06-3.65,2.85-3.87,3.99-.28,1.48,3.32,6.7,7.02,5.1l.99-3.41-.15-3.26c-.02-.47-.11-.91.35-1.3.69-.58,2.08,1.42,2.82.16-.1.18-.06-2.59-.94-2.8-.5-.12-.84.37-1.17.93-.22.04-.76-.55-.57-.85.16-.25.45-.55.64-.77,1.08-1.19-.55-1.78-.79-2.68-.33-1.2,0-2.5-.99-3.37h0ZM141.36,478.83c-.83,1.25-.59,1.9-.76,2.85.18.49,1.51,1.21,1.89.62.75-1.17.3-3.14-1.13-3.48h0ZM145.88,481.2c-.24,1.29-.52,2.06.21,2.98.7-1.09.6-2.41-.21-2.98ZM226.97,508.9c-.72,1.33-.09,2.44-.45,3.42-.73,2.02-1.88,3.94-3.2,5.63-.89-.03-.12.34.14.29.34-.07.69-.16.88-.49,1.14-2.03,5.64-3.66,2.63-8.86h0Z"/>
          <path class="cls-8" d="M108.22,457.45c.17.67.94.83,1.34,1.45-.96,1.72-5.25.78-2.87,2.59-1.22.96-1.02,2.35-1.62,3.48l-1.42,2.68c-.21.4.68,1.11.48,1.51-.05.1-2.98,1.78-3.45,1.77-.8-.01-1.21-.44-1.95-.91l-4.51-2.88c-.85-.54-1.57-.52-2.62-1.23,1.54-.71,2.73.13,4.21-.33l.04-1.71c2.95.84,1.77-1.29,3.58-1.17.43.03.66.64,1.08.87.93.51,1.27-.34,1.73-.76.62-.57-.29-1.27-.18-1.92.54-3.14,3.67-5.59,6.87-5.33l1.69,1.24c-.57.46-1.08.12-2.41.65h0Z"/>
          <path class="cls-8" d="M221.02,458.98c.45.25.92.16,1.48.29-.45.77-.58,1.27-1.3,1.83-.47-.6.07-.93-.18-2.13h0Z"/>
          <path class="cls-8" d="M91.51,496.11c-.82,1.18-1.48,2.76-2.98,3.13-.37.09-1.14-.37-1.35-.62-.49-.58,2.39-2.32,2.54-3.82.44.54.69.91,1.8,1.32h-.01Z"/>
          <path class="cls-8" d="M94.11,493.11c-.29,1.08-1.17,1.81-2.32,2.15-.2-.73.06-1.19.35-1.62.33-.49.89-.75,1.97-.52h0Z"/>
          <path class="cls-8" d="M110.61,530.72c.85-.41,2.08.26,2.4.74-.08.82-1.31.57-1.91.52-.46-.04-1.13-.95-.49-1.26Z"/>
          <path class="cls-8" d="M102.17,524.15c-1.63.02-2.25-1.61-2.92-3.02,1.26.87,2.2,1.74,2.92,3.02Z"/>
        </g>
      </g>
    </g>
  </g>
  <g class="cls-11">
    <text class="cls-3" transform="translate(267.27 223.44) rotate(-30.06)"><tspan x="0" y="0" xml:space="preserve"> Buckmins</tspan></text>
    <text class="cls-3" transform="translate(312.96 197) rotate(-30.06)"><tspan x="0" y="0">t</tspan></text>
    <text class="cls-3" transform="translate(316.55 194.93) rotate(-30.06)"><tspan x="0" y="0">er </tspan></text>
    <text class="cls-4" transform="translate(328.42 188.05) rotate(-30.06)"><tspan x="0" y="0">F</tspan></text>
    <text class="cls-3" transform="translate(333.95 184.85) rotate(-30.06)"><tspan x="0" y="0">ul</tspan></text>
    <text class="cls-3" transform="translate(341.79 180.31) rotate(-30.06)"><tspan x="0" y="0">l</tspan></text>
    <text class="cls-3" transform="translate(344.27 178.88) rotate(-30.06)"><tspan x="0" y="0">er</tspan></text>
  </g>
  <g class="cls-11">
    <text class="cls-3" transform="translate(371.7 161.88) rotate(-30.06)"><tspan x="0" y="0">1</tspan></text>
    <text class="cls-5" transform="translate(375.3 159.8) rotate(-30.06)"><tspan x="0" y="0">9</tspan></text>
    <text class="cls-3" transform="translate(380.8 156.62) rotate(-30.06)"><tspan x="0" y="0">6</tspan></text>
    <text class="cls-3" transform="translate(386.6 153.26) rotate(-30.06)"><tspan x="0" y="0">0</tspan></text>
  </g>
  <g class="cls-11">
    <text class="cls-3" transform="translate(7.44 375.48) rotate(-30.06)"><tspan x="0" y="0">The </tspan></text>
    <text class="cls-2" transform="translate(26.68 364.35) rotate(-30.06)"><tspan x="0" y="0">W</tspan></text>
    <text class="cls-3" transform="translate(35.65 359.16) rotate(-30.06)"><tspan x="0" y="0">or</tspan></text>
    <text class="cls-6" transform="translate(45.32 353.56) rotate(-30.06)"><tspan x="0" y="0">l</tspan></text>
    <text class="cls-3" transform="translate(47.75 352.16) rotate(-30.06)"><tspan x="0" y="0">d Game</tspan></text>
  </g>
</svg>